<svg 
          width="171.5294189453125" 
          height="149.78155517578125" fill="none" 
          xmlns="http://www.w3.org/2000/svg">
          <path d="M 146.40951538085938 149.78155517578125 C 154.309419631958 141.69970321655273 160.6753249168396 132.0485324859619 165.02212524414062 121.32434844970703 C 169.21516275405884 110.97951984405518 171.5294189453125 99.63624858856201 171.5294189453125 87.74000549316406 C 171.5294189453125 75.84376239776611 169.21516275405884 64.50048732757568 165.02212524414062 54.15565872192383 C 160.6753249168396 43.431474685668945 154.309419631958 33.780303955078125 146.40951538085938 25.69845199584961 C 138.50961112976074 17.616600036621094 129.07571411132812 11.104065895080566 118.59296417236328 6.65715217590332 C 108.48102855682373 2.3675427436828613 97.39313125610352 0 85.76470947265625 0 C 74.13628768920898 0 63.04838275909424 2.3675427436828613 52.93644714355469 6.65715217590332 C 42.453697204589844 11.104065895080566 33.019805908203125 17.616600036621094 25.119901657104492 25.69845199584961 C 17.21999740600586 33.780303955078125 10.854079246520996 43.431474685668945 6.507278919219971 54.15565872192383 C 2.314241409301758 64.50048732757568 0 75.84376239776611 0 87.74000549316406 C 0 99.63624858856201 2.314241409301758 110.97951984405518 6.507278919219971 121.32434844970703 C 10.854079246520996 132.0485324859619 17.21999740600586 141.69970321655273 25.119901657104492 149.78155517578125" fill="rgb(215.98500072956085,215.98500072956085,215.98500072956085)"/>
        </svg>