<svg 
          width="20" 
          height="20" fill="none" 
          xmlns="http://www.w3.org/2000/svg">
          <path d="M 19.166666666666668 18.333333333333336 L 2.5 18.333333333333336 C 2.278986250360807 18.333333333333336 2.067024620870749 18.24553659806649 1.910744309425354 18.089256286621094 C 1.7544639979799588 17.932975975175697 1.6666666666666674 17.721013749639194 1.6666666666666667 17.5 L 1.6666666666666667 0.8333333333333334 C 1.6666666666666665 0.6123195836941402 1.5788693353533747 0.40035800387461984 1.4225890239079795 0.24407769242922467 C 1.2663087124625843 0.0877973809838295 1.0543470829725266 1.3877787807814457e-16 0.8333333333333334 0 C 0.6123195836941402 1.61907524424502e-16 0.40035800387461984 0.0877973809838295 0.24407769242922467 0.24407769242922467 C 0.0877973809838295 0.40035800387461984 2.255140518769849e-16 0.6123195836941402 0 0.8333333333333334 L 1.61907524424502e-16 17.5 C 7.170190367370803e-16 18.16304122408231 0.2633920808633169 18.79892632365227 0.7322330276171367 19.26776727040609 C 1.2010739743709564 19.736608217159908 1.8369587759176889 19.999999999999996 2.5 20 L 19.166666666666668 20 C 19.387680416305862 20 19.599642641842365 19.912203264733158 19.75592295328776 19.75592295328776 C 19.912203264733158 19.599642641842365 20 19.387680416305862 20 19.166666666666668 C 20 18.945652917027473 19.912203264733158 18.73369069149097 19.75592295328776 18.577410380045574 C 19.599642641842365 18.421130068600178 19.387680416305862 18.333333333333336 19.166666666666668 18.333333333333336 Z" fill="rgb(221.24999821186066,221.24999821186066,221.24999821186066)"/>
        </svg>